<svg width="17" height="16" viewBox="0 0 17 16" fill="none" xmlns="http://www.w3.org/2000/svg">
<path d="M3.54167 12.7879H4.55104L11.475 6.59021L10.4656 5.68671L3.54167 11.8844V12.7879ZM2.125 14.0559V11.3613L11.475 3.00793C11.6167 2.89169 11.7731 2.80186 11.9443 2.73846C12.1155 2.67506 12.2955 2.64336 12.4844 2.64336C12.6733 2.64336 12.8562 2.67506 13.0333 2.73846C13.2104 2.80186 13.3639 2.89697 13.4938 3.02378L14.4677 3.91142C14.6094 4.02766 14.7127 4.16503 14.7776 4.32354C14.8425 4.48205 14.875 4.64056 14.875 4.79907C14.875 4.96814 14.8425 5.12929 14.7776 5.28252C14.7127 5.43574 14.6094 5.57576 14.4677 5.70256L5.13542 14.0559H2.125ZM10.9615 6.14639L10.4656 5.68671L11.475 6.59021L10.9615 6.14639Z" fill="#1D1B20"/>
</svg>
