<svg width="24" height="24" viewBox="0 0 24 24" fill="none" xmlns="http://www.w3.org/2000/svg">
<path d="M20.5714 12C21.2885 12.372 21.9002 12.9189 22.3497 13.5902C22.7992 14.2614 23.072 15.0353 23.1428 15.84C23.1428 19.1486 18.1543 21.84 12 21.84C5.84569 21.84 0.857117 19.1657 0.857117 15.8571C0.925172 15.0494 1.19668 14.272 1.64633 13.5976C2.09597 12.9231 2.70911 12.3735 3.42855 12" stroke="#9F9F9F" stroke-width="1.71429" stroke-linecap="round" stroke-linejoin="round"/>
<path d="M6.99426 3.85714C3.56569 8.14285 10.4228 9.85714 6.99426 14.1429M12 2.14285C8.5714 6.42857 15.4285 11.5714 12 15.8571M17.0057 3.85714C13.5771 8.14285 20.4343 9.85714 17.0057 14.1429" stroke="#9F9F9F" stroke-width="1.71429" stroke-linecap="round" stroke-linejoin="round"/>
</svg>
